<svg transform="scale(1)" version="1.1" id="_x30_531_x5F_Empty_Cart_3" xmlns="http://www.w3.org/2000/svg" xmlns:xlink="http://www.w3.org/1999/xlink" x="0px" y="0px" viewBox="0 0 500 500" xml:space="preserve" class="show_show__wrapper__graphic__5Waiy "><title>React</title><style type="text/css">
	.st0{fill:#d8d8d8;}
	.st1{fill:#e6e6e6;}
	.st2{fill:#FFFFFF;}
</style><g id="bucket"><polygon class="st0" points="159.1,263.6 370,297.2 283.9,363.6 78,305.6 	"></polygon><path class="st0" d="M284,364.1c0,0-0.1,0-0.1,0l-206-58c-0.3-0.1-0.4-0.4-0.3-0.7c0-0.1,0.1-0.2,0.2-0.3l81.2-42
		c0.1,0,0.2,0,0.4,0L370,296.7c0.2,0,0.4,0.2,0.5,0.4c0.1,0.2,0,0.4-0.2,0.6l-86,66.4C284.2,364.1,284.1,364.1,284,364.1z
		 M79.5,305.4l204.3,57.5l84.8-65.4l-209.4-33.4L79.5,305.4z"></path><path class="st1" d="M370,297.2v21.5c0,2.4-1.1,4.7-3,6.2l-82.6,64.9l-0.4-26.3L370,297.2z"></path><path class="st0" d="M284.3,390.5c-0.1,0-0.2,0-0.2-0.1c-0.2-0.1-0.3-0.3-0.3-0.5l-0.4-26.3c0-0.2,0.1-0.3,0.2-0.5l86-66.4
		c0.2-0.1,0.4-0.2,0.6-0.1c0.2,0.1,0.3,0.3,0.3,0.5v21.5c0,2.6-1.2,5.1-3.2,6.7l-82.6,64.9C284.6,390.4,284.5,390.5,284.3,390.5z
		 M284.5,363.8l0.4,24.9l81.7-64.2c1.8-1.4,2.8-3.5,2.8-5.8v-20.4L284.5,363.8z"></path><path class="st2" d="M78,305.6l1.5,20.4c0.3,3.7,2.8,6.8,6.4,7.8l198.5,56.1l-0.4-26.3L78,305.6z"></path><path class="st0" d="M284.3,390.5h-0.2L85.7,334.3c-3.8-1.1-6.5-4.4-6.7-8.3l-1.5-20.4c0-0.3,0.2-0.6,0.5-0.6c0.1,0,0.1,0,0.2,0
		l206,58c0.2,0.1,0.4,0.3,0.4,0.5l0.4,26.3c0,0.2-0.1,0.3-0.2,0.5C284.6,390.5,284.5,390.5,284.3,390.5z M78.6,306.4l1.5,19.5
		c0.3,3.5,2.7,6.4,6,7.3l197.7,55.9l-0.4-25.2L78.6,306.4z"></path><path class="st1" d="M361.8,329l-19.7,77.1c-0.5,1.9-1.6,3.7-3.1,4.9l-53,36.3c-1.4,1.1-3,1.9-4.7,2.2l3.1-59.7L361.8,329z"></path><path class="st0" d="M281.2,450.2c-0.1,0-0.3,0-0.4-0.1c-0.1-0.1-0.2-0.3-0.2-0.5l3.1-59.7c0-0.2,0.1-0.3,0.2-0.4l77.5-60.9
		c0.2-0.1,0.5-0.1,0.6,0c0.2,0.1,0.3,0.4,0.2,0.6l-19.7,77.1c-0.5,2-1.7,3.9-3.3,5.2l-53.1,36.4c-1.4,1.2-3.1,2-4.9,2.3L281.2,450.2
		z M284.9,390.2l-3.1,58.7c1.4-0.4,2.6-1.1,3.7-2l53.1-36.4c1.4-1.2,2.4-2.8,2.9-4.6l19.3-75.5L284.9,390.2z"></path><path class="st2" d="M284.3,389.9l-3.1,59.7c-1.9,0.4-3.9,0.3-5.8-0.3l-160-50c-2.9-1-5.1-3.3-6-6.3l-16.9-57.4L284.3,389.9z"></path><path class="st0" d="M279,450.4c-1.3,0-2.5-0.2-3.7-0.6l-160-49.9c-3.1-1-5.5-3.5-6.4-6.6L92,335.8c-0.1-0.2,0-0.4,0.1-0.6
		c0.1-0.1,0.4-0.2,0.6-0.1l191.8,54.2c0.3,0.1,0.4,0.3,0.4,0.6l-3.1,59.7c0,0.3-0.2,0.5-0.4,0.5C280.6,450.4,279.8,450.4,279,450.4z
		 M93.4,336.4l16.6,56.5c0.8,2.8,2.9,5,5.6,5.9l160,49.9c1.6,0.6,3.4,0.7,5.1,0.4l3.1-58.8L93.4,336.4z"></path><path class="st0" d="M305.3,417.9c-0.2,0-0.5,0-0.7-0.1c-2.1-0.4-3.6-2.4-3.2-4.5l6-34.1c0.3-2.1,2.3-3.6,4.5-3.3
		c2.1,0.3,3.6,2.3,3.3,4.5c0,0,0,0.1,0,0.1l-6,34.1C308.8,416.6,307.2,417.9,305.3,417.9z"></path><path class="st0" d="M305.3,418.5c-0.3,0-0.5,0-0.8-0.1c-2.4-0.4-4.1-2.8-3.6-5.2l6-34.1c0.5-2.4,2.9-4,5.3-3.5
		c2.3,0.5,3.9,2.7,3.5,5.1l-6,34.1C309.3,416.9,307.5,418.5,305.3,418.5z M311.3,376.6c-1.6,0-3,1.2-3.3,2.8l-6,34.1
		c-0.2,1.8,1.1,3.5,2.9,3.8c1.7,0.2,3.3-0.9,3.7-2.6l6-34.1c0.3-1.8-0.9-3.6-2.7-3.9C311.7,376.6,311.5,376.6,311.3,376.6
		L311.3,376.6z"></path><path class="st0" d="M324.5,403.8c-0.2,0-0.5,0-0.7-0.1c-2.1-0.4-3.6-2.4-3.2-4.5l6-34.1c0.3-2.1,2.3-3.6,4.5-3.3
		c2.1,0.3,3.6,2.3,3.3,4.5c0,0,0,0.1,0,0.1l-6,34.1C328,402.4,326.4,403.8,324.5,403.8z"></path><path class="st0" d="M324.5,404.4c-0.3,0-0.5,0-0.8-0.1c-2.4-0.4-4.1-2.8-3.6-5.2l6-34.1c0.4-2.5,2.6-4.1,5.1-3.8
		c2.5,0.4,4.1,2.6,3.8,5.1c0,0.1,0,0.2,0,0.2l-6,34.1C328.5,402.8,326.6,404.4,324.5,404.4z M330.5,362.4c-1.6,0-3,1.2-3.3,2.8
		l-6,34.1c-0.2,1.8,1.1,3.5,2.9,3.8c1.7,0.2,3.3-0.9,3.7-2.6l6-34.1c0.3-1.8-0.9-3.6-2.7-3.9C330.8,362.4,330.6,362.4,330.5,362.4
		L330.5,362.4z"></path><path class="st2" d="M258,432c-0.4,0-0.8-0.1-1.2-0.2c-2.1-0.7-3.2-2.9-2.5-4.9c0,0,0,0,0,0l10.6-33.2c0.7-2,3-3.1,5-2.3
		c1.9,0.7,3,2.8,2.4,4.7l-10.7,33.2C261.1,430.9,259.6,432,258,432z"></path><path class="st0" d="M258,432.6c-0.5,0-0.9-0.1-1.4-0.2c-2.4-0.8-3.7-3.3-2.9-5.6l10.6-33.2c0.4-1.1,1.2-2.1,2.2-2.6
		c2.2-1.1,4.9-0.3,6,1.9c0.5,1.1,0.6,2.3,0.3,3.4l-10.6,33.2C261.6,431.3,259.9,432.6,258,432.6z M268.6,391.6
		c-1.5,0-2.8,0.9-3.2,2.3l-10.6,33.2c-0.6,1.8,0.4,3.7,2.2,4.2c0.3,0.1,0.7,0.2,1,0.2c1.5,0,2.8-0.9,3.2-2.4l10.6-33.2
		c0.6-1.8-0.4-3.7-2.2-4.2C269.2,391.6,268.9,391.5,268.6,391.6L268.6,391.6z"></path><path class="st2" d="M233.2,424.8c-2.2,0-3.9-1.7-3.9-3.9c0-0.3,0-0.7,0.1-1l8.4-34c0.4-2.1,2.5-3.5,4.6-3.1
		c2.1,0.4,3.5,2.5,3.1,4.6c0,0.1-0.1,0.2-0.1,0.4l-8.4,34C236.6,423.6,235,424.8,233.2,424.8z"></path><path class="st0" d="M233.2,425.4c-0.4,0-0.7,0-1.1-0.1c-2.4-0.6-3.9-3-3.3-5.4l8.4-34c0.6-2.4,3-3.9,5.4-3.3
		c2.4,0.6,3.9,3,3.3,5.4c0,0,0,0,0,0l-8.4,34C237.1,423.9,235.3,425.4,233.2,425.4z M241.7,383.5c-1.5,0-2.9,1.1-3.3,2.5l-8.4,34
		c-0.4,1.8,0.7,3.6,2.5,4.1c0.3,0.1,0.5,0.1,0.8,0.1c1.5,0,2.9-1.1,3.3-2.5l8.4-34c0.4-1.8-0.7-3.6-2.5-4.1
		C242.2,383.5,241.9,383.5,241.7,383.5L241.7,383.5z"></path><path class="st2" d="M208.6,417.6c-0.2,0-0.4,0-0.6,0c-2.1-0.3-3.6-2.3-3.3-4.5c0,0,0,0,0,0l5.2-34c0.3-2.1,2.3-3.6,4.5-3.3
		c2.1,0.3,3.6,2.3,3.3,4.5l-5.2,34C212.1,416.2,210.5,417.6,208.6,417.6z"></path><path class="st0" d="M208.6,418.2c-0.2,0-0.5,0-0.7,0c-2.4-0.4-4.1-2.7-3.8-5.1l5.2-34c0.4-2.5,2.7-4.1,5.1-3.8
		c2.5,0.4,4.1,2.7,3.8,5.1l-5.2,34C212.6,416.6,210.8,418.2,208.6,418.2z M213.7,376.4c-1.7,0-3.1,1.2-3.3,2.9l-5.2,34
		c-0.3,1.8,1,3.5,2.8,3.8c1.8,0.3,3.5-1,3.8-2.8l5.2-34c0.3-1.8-1-3.6-2.8-3.8C214.1,376.4,213.9,376.4,213.7,376.4z"></path><path class="st2" d="M183.9,410.4h-0.2c-2.2-0.1-3.9-1.9-3.8-4.1c0,0,0,0,0,0l1.5-35.4c0-2.2,1.8-3.9,4-3.9s3.9,1.8,3.9,4
		c0,0.1,0,0.2,0,0.2l-1.5,35.4C187.7,408.8,186,410.4,183.9,410.4z"></path><path class="st0" d="M183.9,411h-0.2c-2.5-0.1-4.4-2.2-4.3-4.7c0,0,0,0,0,0l1.5-35.4c0.1-2.5,2.2-4.4,4.7-4.3s4.4,2.2,4.3,4.7
		l-1.5,35.4C188.3,409.1,186.3,411,183.9,411z M185.4,367.8c-1.8,0-3.3,1.4-3.4,3.2l-1.5,35.3c-0.1,1.8,1.3,3.4,3.2,3.5c0,0,0,0,0,0
		h0.1c1.8,0,3.3-1.4,3.4-3.2l1.5-35.4c0.1-1.9-1.4-3.4-3.2-3.5c0,0,0,0,0,0L185.4,367.8z"></path><path class="st2" d="M159.2,403.2c-2.1,0-3.8-1.6-3.9-3.7l-1.7-35.8c-0.1-2.2,1.6-4,3.8-4.1c2.1-0.1,4,1.6,4.1,3.7l1.7,35.8
		c0.1,2.2-1.6,4-3.7,4.1L159.2,403.2z"></path><path class="st0" d="M159.2,403.8c-2.4,0-4.4-1.9-4.5-4.3l-1.7-35.8c-0.1-2.5,1.8-4.6,4.3-4.7s4.6,1.8,4.7,4.3l0,0l1.7,35.8
		c0.1,2.5-1.8,4.6-4.3,4.7c0,0,0,0,0,0L159.2,403.8z M157.5,360.2h-0.2c-0.9,0-1.7,0.4-2.3,1.1c-0.6,0.7-0.9,1.5-0.9,2.4l1.7,35.8
		c0.1,1.8,1.6,3.2,3.4,3.2h0.2c1.9-0.1,3.3-1.7,3.2-3.5l-1.7-35.8c0-0.9-0.4-1.7-1.1-2.3C159.1,360.5,158.3,360.2,157.5,360.2z"></path><path class="st2" d="M134.6,396c-1.9,0-3.5-1.4-3.9-3.2l-6.3-36c-0.4-2.1,1-4.2,3.1-4.6c2.1-0.4,4.2,1,4.6,3.1c0,0,0,0.1,0,0.1
		l6.3,36c0.4,2.1-1,4.2-3.2,4.5c0,0,0,0,0,0C135,396,134.8,396,134.6,396z"></path><path class="st0" d="M134.6,396.6c-2.2,0-4-1.6-4.4-3.7l-6.3-36c-0.3-2.5,1.4-4.7,3.8-5.1c2.3-0.3,4.5,1.2,5,3.5l6.3,36
		c0.4,2.4-1.2,4.8-3.6,5.2C135.1,396.6,134.8,396.6,134.6,396.6z M128.3,352.7c-0.2,0-0.4,0-0.6,0c-1.8,0.3-3.1,2.1-2.7,3.9
		c0,0,0,0,0,0l6.3,36c0.3,1.8,2.1,3.1,3.9,2.7c0.9-0.2,1.7-0.7,2.2-1.4c0.5-0.7,0.7-1.6,0.6-2.5l-6.3-36
		C131.3,353.9,129.9,352.7,128.3,352.7z"></path></g><g id="bird"><path class="st2" d="M118.8,273.4c0.9,3,1.4,6.2,1.5,9.3c0,0,5.3-1.3,5.5,1.4c-1.3-0.2-2.7-0.2-4,0c0,0,2.3,0.3,2.6,1.8
		c-1.2-0.3-2.5-0.4-3.7-0.5l0.3,2.2c0,0-2-1.5-2.3-3.1s-1.6-9.8-1.6-9.8L118.8,273.4z"></path><path class="st0" d="M121.1,288.2c-0.1,0-0.2,0-0.3-0.1c-0.1-0.1-2.2-1.7-2.5-3.4c-0.3-1.5-1.6-9.5-1.7-9.8c0-0.2,0-0.4,0.2-0.5
		l1.6-1.4c0.1-0.1,0.3-0.2,0.5-0.1c0.2,0.1,0.3,0.2,0.4,0.4c0.9,2.9,1.4,5.8,1.5,8.8c1.2-0.2,3.4-0.5,4.7,0.5
		c0.5,0.4,0.8,0.9,0.9,1.6c0,0.2-0.1,0.3-0.2,0.5c-0.1,0.1-0.3,0.2-0.5,0.1c-0.5-0.1-1-0.1-1.5-0.1c0.4,0.3,0.7,0.8,0.8,1.3
		c0,0.2,0,0.4-0.2,0.5c-0.1,0.1-0.3,0.2-0.5,0.1c-1-0.2-2-0.4-3-0.5l0.3,1.6c0,0.2-0.1,0.5-0.3,0.6
		C121.2,288.2,121.2,288.2,121.1,288.2z M117.7,275c0.3,1.5,1.3,8.2,1.6,9.5c0.2,0.6,0.5,1.2,1,1.6l-0.1-0.6c0-0.2,0-0.3,0.1-0.4
		c0.1-0.1,0.2-0.2,0.4-0.2c0.8,0,1.6,0,2.4,0.2c-0.4-0.2-0.8-0.3-1.3-0.4c-0.3,0-0.5-0.3-0.5-0.5c0-0.3,0.2-0.5,0.4-0.6
		c1-0.2,2.1-0.2,3.2-0.1l0,0c-1-0.7-3.5-0.4-4.4-0.1c-0.2,0-0.3,0-0.5-0.1c-0.1-0.1-0.2-0.3-0.2-0.4c-0.1-2.8-0.5-5.6-1.2-8.4
		L117.7,275z"></path><path class="st2" d="M130,224.1l8.9-2.3c0,0-8.2,4.2-8.9,7.9c0,0,9.4,25.8-3.1,39.8c-12.5,14-36.9,15.1-49.8-1.6
		c0,0-3.8-7.8-4.4-14.7l6.4,7.2l-3-10.9c0,0,15.4,10.6,22.8,4.6c7.4-6,5.7-22.2,10.6-30.5S126.7,216.2,130,224.1z"></path><path class="st0" d="M102.3,280.8c-0.4,0-0.9,0-1.3,0c-9.6-0.3-18.6-4.9-24.4-12.6c-0.2-0.4-3.9-8-4.5-15c0-0.2,0.1-0.5,0.3-0.6
		c0.2-0.1,0.5,0,0.6,0.1l4.8,5.4l-2.4-8.6c-0.1-0.2,0-0.5,0.2-0.6c0.2-0.1,0.5-0.1,0.7,0c0.2,0.1,15.1,10.3,22.1,4.7
		c4.1-3.3,5.3-10.1,6.5-16.8c0.9-4.9,1.8-10,4-13.6c2.4-4.1,6.9-6.4,11.7-6.1c4.1,0.2,7.8,2.6,9.6,6.2l8.4-2.2
		c0.3-0.1,0.6,0.1,0.7,0.3c0.1,0.3,0,0.6-0.3,0.7c-2.2,1.1-7.9,4.6-8.5,7.4c1.6,4.7,2.6,9.6,3.1,14.6c1,10.9-1.2,19.7-6.4,25.6
		C120.9,276.9,111.8,280.8,102.3,280.8z M73.5,254.8c0.8,4.4,2.2,8.7,4.1,12.8c5.6,7.3,14.2,11.8,23.5,12
		c9.6,0.4,18.9-3.4,25.4-10.5c12.2-13.6,3.1-39,3-39.2c0-0.1,0-0.2,0-0.3c0.4-2.3,3.3-4.6,5.8-6.3l-5,1.3c-0.3,0.1-0.6-0.1-0.7-0.3
		c-1.6-3.5-5-5.8-8.8-6c-4.4-0.4-8.5,1.8-10.7,5.6c-2,3.4-2.9,8.4-3.8,13.3c-1.2,6.8-2.5,13.8-6.9,17.4c-6.4,5.2-18.3-1.4-22.2-3.8
		l2.6,9.5c0.1,0.2,0,0.5-0.3,0.6c-0.2,0.1-0.5,0.1-0.7-0.1L73.5,254.8z"></path><path class="st0" d="M96.7,279.7c-1.4,0-2.7-0.1-4.1-0.4c-0.3-0.1-0.5-0.3-0.5-0.6c0.1-0.3,0.3-0.5,0.7-0.5c9.5,1.7,19-3,23.4-11.5
		c4.9-9.1-0.8-22.7-0.8-22.8c-0.2-0.2-0.1-0.6,0.1-0.8c0.2-0.2,0.6-0.1,0.8,0.1c0,0.1,0.1,0.1,0.1,0.2c0.2,0.6,5.9,14.2,0.8,23.8
		C113.2,274.9,105.3,279.7,96.7,279.7z"></path><path class="st0" d="M92.4,275.4c-1.1,0-2.2-0.1-3.3-0.2c-0.3,0-0.5-0.3-0.5-0.6c0,0,0,0,0,0c0-0.3,0.3-0.5,0.6-0.5c0,0,0,0,0,0
		c6.7,0.7,12.1-0.7,16-4.3c6.3-5.6,6.9-14.7,6.9-18.3c0-0.3,0.3-0.6,0.6-0.6c0.3,0,0.6,0.3,0.6,0.6c0,3.8-0.7,13.2-7.3,19.2
		C102.5,273.7,98,275.4,92.4,275.4z"></path><path class="st0" d="M89.6,265.8c-4.2,0-8.2-1.9-10.9-5.1c-0.2-0.2-0.2-0.6,0-0.8s0.6-0.2,0.8,0c3.1,3.7,7.9,5.4,12.6,4.5
		c6.2-1.1,12.3-6.2,14.9-12.4c0.1-0.3,0.4-0.4,0.7-0.3c0,0,0,0,0,0c0.3,0.1,0.4,0.4,0.3,0.7c0,0,0,0,0,0
		c-2.7,6.5-9.1,11.9-15.7,13.1C91.4,265.7,90.5,265.8,89.6,265.8z"></path><ellipse class="st0" cx="116.3" cy="226.5" rx="1.2" ry="2.1"></ellipse><path class="st2" d="M112,278c-1.8,2.9-3.9,5.6-6.2,8.1c0,0,4.2,1.6,4.4,3.2s-3.8-1.3-3.8-1.3s3.6,5.1,1.9,5.1s-3.1-4.7-3.1-4.7
		s0.2,6-1.3,5.2s-1-7-0.5-8.3s4.5-5.9,5.8-7.7c0.6-0.5,1.2-0.8,1.9-1c0.5-0.1,1,0.2,1.1,0.7C112.1,277.6,112.1,277.8,112,278z"></path><path class="st0" d="M104,294.4c-0.2,0-0.4,0-0.5-0.1c-2.1-1-1.2-7.9-0.8-9c0.3-0.9,1.7-2.7,3.7-5.1c0.9-1.1,1.7-2.1,2.1-2.7
		l0.1-0.1c0.6-0.5,1.3-0.9,2.1-1.2c0.8-0.2,1.6,0.3,1.8,1.1c0.1,0.4,0,0.8-0.2,1.1l0,0c-1.7,2.7-3.6,5.2-5.7,7.6
		c1.4,0.6,3.8,1.9,4,3.4c0.1,0.4-0.1,0.8-0.4,1c-0.5,0.3-1.3,0-2.2-0.4c0.8,1.3,1.3,2.7,1,3.4c-0.2,0.3-0.5,0.5-0.9,0.5l0,0
		c-1.1,0-2-1.2-2.6-2.4c-0.1,1.3-0.4,2.5-1,2.9C104.5,294.3,104.2,294.4,104,294.4z M109.5,278.1c-0.5,0.7-1.3,1.6-2.1,2.7
		c-1.3,1.5-2.5,3.1-3.5,4.8c-0.5,1.5-0.8,7.1,0.2,7.6c0.3-0.3,0.6-2.5,0.5-4.7c0-0.3,0.2-0.5,0.5-0.6c0.3,0,0.6,0.1,0.6,0.4
		c0.5,1.7,1.6,4.2,2.5,4.3c-0.5-1.5-1.2-3-2.2-4.3c-0.2-0.2-0.1-0.6,0.1-0.8c0.2-0.2,0.5-0.2,0.7,0c0.9,0.7,1.9,1.2,2.9,1.6
		c-0.4-0.9-2.5-2-4-2.5c-0.3-0.1-0.4-0.4-0.3-0.7c0-0.1,0.1-0.1,0.1-0.2c2.2-2.5,4.3-5.2,6.1-8l0,0c0.1-0.1,0.1-0.3,0-0.4
		c-0.1-0.1-0.2-0.2-0.4-0.1C110.5,277.4,109.9,277.7,109.5,278.1z M111.9,278L111.9,278z"></path></g><g id="character-2"><path class="st2" d="M253.5,130.5c-0.6,14.3,1.7,52-15.6,67.3s-52.9,0.7-44.5-29.7s56.1-42.8,56.1-42.8L253.5,130.5z"></path><path class="st0" d="M220.8,204.4c-5.8,0-11.5-1.6-16.4-4.7c-10.8-6.8-15.1-18.6-11.5-31.8c8.4-30.3,56-43.1,56.5-43.2
		c0.2-0.1,0.4,0,0.6,0.2l4,5.2c0.1,0.1,0.1,0.2,0.1,0.4c-0.1,2-0.1,4.5-0.2,7.3c-0.2,17.6-0.6,47.1-15.6,60.3
		C233.4,202.2,227.2,204.5,220.8,204.4z M249.2,125.9c-4.4,1.2-47.5,14-55.3,42.3c-3.5,12.6,0.6,24,11,30.5
		c10.5,6.6,24.2,6,32.6-1.4c14.7-12.9,15-42.1,15.2-59.5c0-2.8,0.1-5.2,0.1-7.2L249.2,125.9z"></path><path class="st1" d="M273.5,138.6c-1.2,0.8-48.6,10.1-70.6,31.9s-29.8,87.9-23,108.7s38.4,25.3,59.1-2.6l124.3,19.5l17.8-5.1
		c6.1-1.7,9.8-8,8.3-14.2l-4.1-17.2c0,0,33.4-23.6,11.3-51.3s-54.1-60.4-76.9-66.6S273.5,138.6,273.5,138.6z"></path><path class="st0" d="M242.7,272.8c-0.1,0-0.2,0-0.3-0.1c-0.3-0.1-0.4-0.5-0.2-0.8c0,0,0,0,0,0c0-0.1,3.2-6.4,10.7-35.2
		c10.3-39.5,14-65.8,10.4-72c-0.1-0.3-0.1-0.6,0.2-0.8c0.3-0.2,0.6-0.1,0.8,0.2c0,0,0,0,0,0c5.2,8.9-4.2,49.4-10.2,72.9
		c-7.5,29-10.7,35.1-10.8,35.4C243.1,272.7,242.9,272.8,242.7,272.8z"></path><path class="st0" d="M198.8,283.5c-0.2,0-0.3-0.1-0.4-0.2c-16.1-21.6,16.1-111.4,24-123.5c0.2-0.3,0.5-0.3,0.8-0.2
		c0.3,0.2,0.3,0.5,0.2,0.8l0,0c-7.6,11.7-39.4,101.5-24,122.3c0.2,0.2,0.1,0.6-0.1,0.8C199.1,283.5,199,283.5,198.8,283.5z"></path><path class="st0" d="M288.4,252.2L288.4,252.2c-0.4,0-0.6-0.3-0.6-0.6c0.7-7.6,10-11,26.7-17.1l5-1.8c19.7-7.2,43.2-16.1,43.4-16.2
		c0.3,0,0.6,0.2,0.6,0.5c0,0.2-0.1,0.4-0.2,0.5c-0.2,0.1-23.8,9-43.4,16.2l-5,1.8c-16.4,6-25.4,9.2-26,16.1
		C288.9,251.9,288.7,252.2,288.4,252.2z"></path><path class="st0" d="M359.4,219c-0.3,0-0.5-0.2-0.5-0.4c-0.1-0.4-8.4-39.3-17.4-50.2c-0.2-0.2-0.2-0.6,0.1-0.8
		c0.2-0.2,0.6-0.2,0.8,0.1c0,0,0,0,0,0c9.2,11.1,17.3,49,17.6,50.6c0.1,0.3-0.1,0.6-0.4,0.7c0,0,0,0,0,0L359.4,219z"></path><path class="st0" d="M312.3,283.5c-0.3,0-0.6-0.3-0.5-0.6c0-0.3,0.2-0.5,0.5-0.5c0.4-0.1,40-6.7,68.5-19.4c0.3-0.1,0.6,0,0.7,0.3
		c0,0,0,0,0,0c0.1,0.3,0,0.6-0.3,0.7C352.5,276.8,312.8,283.5,312.3,283.5L312.3,283.5z"></path><path class="st1" d="M256.2,134.5c1.1,3.7-5.2,8.4-12.6,5.4s-13.2-11.6-4.2-15.5S256.2,134.5,256.2,134.5z"></path><path class="st0" d="M248.3,141.4c-1.7,0-3.4-0.3-4.9-1c-5.2-2.1-9.1-6.6-9.1-10.4c0-1.8,0.8-4.4,4.9-6.1c9.3-4,17.2,9.8,17.6,10.3
		c0,0,0,0.1,0,0.1c0.4,1.7-0.2,3.6-1.7,4.7C253.2,140.6,250.8,141.4,248.3,141.4z M242.5,124.2c-1,0-2.1,0.2-3,0.6
		c-2.8,1.2-4.2,3-4.2,5.1c0,3.4,3.7,7.4,8.4,9.4c4.4,1.8,8.4,0.7,10.5-1.2c1.1-0.8,1.6-2.1,1.4-3.4
		C255.2,133.9,249.4,124.2,242.5,124.2L242.5,124.2z"></path><path class="st2" d="M282.4,38.5C301.7,21.7,328.7,49,324,82.1s-56.1,47.7-56.1,47.7l-14.9,5.9c0,0-12.2-1.7-15.4-8.3
		s-1.8-24.9-2.5-41.6S239.5,39.9,282.4,38.5z"></path><path class="st0" d="M253,136.3L253,136.3c-0.6-0.1-12.6-1.8-15.9-8.6c-2.3-4.7-2.3-14.8-2.3-26.6c0-5,0-10.2-0.2-15.3
		c-0.4-9.8,1.2-23.7,10.8-34c8.1-8.7,20.5-13.3,36.9-13.9c6.9-5.9,15.1-6.8,23.1-2.4c11.9,6.5,22.3,24.6,19.2,46.6
		c-4.7,33.1-56,48-56.5,48.2l-14.8,5.9C253.1,136.3,253,136.3,253,136.3z M295.2,34c-4.6,0.1-9.1,1.9-12.4,5
		c-0.1,0.1-0.2,0.1-0.4,0.1c-16.2,0.5-28.4,5-36.3,13.5c-9.3,10-10.9,23.6-10.5,33.2c0.2,5.1,0.2,10.3,0.2,15.3
		c0,11.1,0.1,21.6,2.2,26.1c2.8,5.9,13.4,7.8,14.8,8l14.7-5.8c0.6-0.2,51.2-14.9,55.8-47.3c3.1-21.5-7-39.2-18.6-45.5
		C301.9,34.9,298.6,34,295.2,34z M282.4,38.5L282.4,38.5z"></path><path class="st2" d="M261.6,112.7c-0.8,13.2-3,28.6-3,28.6s3.1,12.6,16.1,13.8s13.6-9.9,13.6-12.2s-1.8-9.8-2.1-12.2
		C286,128.2,261.6,112.7,261.6,112.7z"></path><path class="st0" d="M276.7,155.8c-0.6,0-1.3,0-2-0.1c-13.3-1.3-16.6-14.1-16.6-14.2c0-0.1,0-0.1,0-0.2c0-0.1,2.2-15.5,3-28.6
		c0-0.2,0.1-0.4,0.3-0.5c0.2-0.1,0.4-0.1,0.5,0c5.8,3.7,24.6,15.8,24.9,18.4c0.1,1,0.5,2.8,0.9,4.7c0.6,2.5,1,5,1.2,7.6
		c0,2-0.4,6.8-3.9,10C282.8,154.9,279.8,156,276.7,155.8z M259.2,141.4c0.3,1.2,3.8,12.1,15.6,13.3c4.1,0.4,7.3-0.4,9.5-2.4
		c3.2-2.9,3.5-7.4,3.5-9.2c-0.2-2.5-0.6-4.9-1.2-7.4c-0.4-2-0.8-3.8-0.9-4.8c-0.4-1.5-12.1-9.7-23.6-17.1
		C261.3,126,259.4,139.9,259.2,141.4z"></path><path class="st2" d="M311.9,70.4c0,0,15.4,33,3,48.4s-47.5,16.6-60.2-5.1c0,0-6.2,8.7-13,0.9s-0.1-17.7,9.8-14.4
		c0,0,2.6-9.7,19.2-17.4s24.4-19.6,24.4-19.6S299,68.7,311.9,70.4z"></path><path class="st0" d="M286.9,130.7c-1.2,0-2.3,0-3.5-0.1c-12.6-0.9-23-6.8-28.7-16c-1,1.2-3.5,3.6-6.6,3.7c-2.4,0.1-4.6-1-6.8-3.4
		c-3.2-3.7-3.8-8.4-1.5-11.9s6.7-4.9,11.4-3.6c0.8-2.2,4.7-10.4,19.4-17.2c16.3-7.6,24.1-19.3,24.2-19.4c0.1-0.2,0.3-0.3,0.5-0.3
		c0.2,0,0.4,0.1,0.5,0.2c0,0,3.8,5.5,16.3,7c0.2,0,0.4,0.1,0.4,0.3c2.6,6,4.7,12.2,6.2,18.5c3,13.5,1.9,24-3.2,30.5
		C309.6,126.4,298.6,130.7,286.9,130.7z M254.7,113.1L254.7,113.1c0.2,0,0.4,0.1,0.5,0.3c5.4,9.3,15.7,15.2,28.3,16.1
		c12.7,0.9,24.9-3.4,31-11.1c11.4-14.2-1.5-44.3-3-47.5c-10.4-1.4-14.9-5.3-16.3-6.8c-6.4,8.3-14.7,14.9-24.2,19.2
		c-16.2,7.5-18.9,17-18.9,17c0,0.1-0.1,0.3-0.3,0.3c-0.1,0.1-0.3,0.1-0.4,0c-4.4-1.4-8.5-0.2-10.6,3c-1.6,2.5-2.1,6.6,1.4,10.6
		c1.9,2.2,3.9,3.2,5.9,3.1c3.6-0.2,6.3-3.9,6.3-3.9C254.4,113.2,254.5,113.1,254.7,113.1L254.7,113.1z"></path><path class="st0" d="M282.4,89.6c-1-0.5-2-0.9-3-1.1c-1-0.2-2-0.3-3-0.1c-0.2,0-0.5,0.1-0.7,0.2c-0.2,0-0.5,0.1-0.7,0.2l-0.7,0.3
		l-0.7,0.4c-0.2,0.1-0.5,0.3-0.7,0.4l-0.6,0.5c-0.4,0.3-0.8,0.7-1.3,1l-0.1,0.1c-0.2,0.2-0.6,0.1-0.8-0.1c-0.1-0.2-0.1-0.4,0-0.6
		c0.3-0.5,0.7-1,1.1-1.5c0.4-0.5,0.9-0.9,1.4-1.2c1-0.8,2.2-1.3,3.5-1.5c1.3-0.2,2.6-0.1,3.8,0.4c1.2,0.4,2.3,1.1,3.2,1.9
		c0.2,0.2,0.2,0.6,0,0.8C282.9,89.7,282.7,89.7,282.4,89.6L282.4,89.6z"></path><path class="st0" d="M311.4,81.2c-0.4-0.3-0.9-0.5-1.4-0.6c-0.6-0.1-1.1-0.2-1.7-0.2c-1.2,0-2.3,0.2-3.5,0.6
		c-1.1,0.4-2.2,0.9-3.2,1.6c-1,0.7-2,1.5-2.9,2.3l0,0c-0.2,0.2-0.6,0.2-0.8,0c0,0,0,0,0,0c-0.2-0.2-0.2-0.5,0-0.7
		c0.7-1.1,1.6-2.1,2.7-3c1.1-0.9,2.3-1.6,3.6-2c1.3-0.5,2.8-0.6,4.2-0.5c0.7,0.1,1.4,0.2,2.1,0.5c0.7,0.3,1.4,0.7,1.9,1.3
		c0.2,0.2,0.1,0.6-0.1,0.8c-0.2,0.1-0.5,0.1-0.6,0L311.4,81.2z"></path><path class="st0" d="M302.3,104.8c-2.6,0.1-4.8-1.7-5.3-4.2c0-0.3,0.2-0.6,0.5-0.6c0,0,0,0,0,0c0.3,0,0.6,0.2,0.6,0.5
		c0.4,2,2.3,3.4,4.4,3.3c1.5,0,2.7-1.2,2.7-2.7c0-0.1,0-0.1,0-0.2c0.1-0.8-0.2-1.5-0.8-2c-1.3-1.2-4-1.1-4.9-0.9
		c-0.3,0-0.6-0.2-0.6-0.4c-0.8-4.2-1.2-8.5-1.2-12.8c0-0.3,0.3-0.6,0.6-0.6l0,0c0.3,0,0.6,0.3,0.6,0.6c0,4.1,0.4,8.1,1.1,12.1
		c1.1-0.1,3.7-0.1,5.3,1.3c0.8,0.7,1.2,1.8,1.2,2.8c0.1,2.1-1.5,3.9-3.6,4c0,0-0.1,0-0.1,0L302.3,104.8z"></path><path class="st0" d="M280.2,96.8c-0.3,2.1,0.6,4,2.1,4.2s2.9-1.3,3.2-3.4c0.1-0.6,0.1-1.2-0.1-1.8l-2.7,1l1.6-2.9
		c-0.3-0.2-0.6-0.4-1-0.4C282,93.2,280.5,94.7,280.2,96.8z"></path><path class="st0" d="M307.7,87.8c-0.5,2.1,0.3,4,1.7,4.3s3-1,3.5-3.1c0.1-0.6,0.2-1.2,0.1-1.8l-2.8,0.7l1.9-2.7
		c-0.2-0.3-0.6-0.4-0.9-0.5C309.8,84.4,308.2,85.8,307.7,87.8z"></path><path class="st0" d="M242.7,109.2L242.7,109.2c-0.4-0.1-0.6-0.3-0.6-0.6c0.2-1.6,1-3.1,2.4-4c2.4-1.6,5.6-0.7,5.8-0.7
		c0.3,0.1,0.5,0.4,0.4,0.7c-0.1,0.3-0.4,0.5-0.7,0.4c0,0-2.9-0.7-4.9,0.6c-1.1,0.7-1.7,1.9-1.9,3.2C243.2,109,243,109.2,242.7,109.2
		z"></path><path class="st0" d="M248.7,113.6L248.7,113.6c-1.4-0.2-2.6-1-3.3-2.1c-1.2-1.9-1.6-4.3-1.2-6.5c0.1-0.3,0.4-0.5,0.7-0.4
		c0,0,0,0,0,0c0.3,0.1,0.5,0.4,0.4,0.7c0,0,0,0,0,0c-0.3,1.9,0.1,3.9,1.1,5.6c0.5,0.9,1.4,1.5,2.4,1.6c0.3,0,0.5,0.3,0.5,0.6
		C249.2,113.4,248.9,113.6,248.7,113.6z"></path><path class="st0" d="M289.8,116.6c-0.3,0-0.6-0.2-0.6-0.5c0-0.1,0-0.2,0.1-0.3c1.5-2.9,4.5-4.7,7.7-4.6c2-0.1,3.8,1.1,4.7,2.9
		c0.2,0.2,0.1,0.6-0.1,0.8c-0.2,0.2-0.6,0.1-0.8-0.1c-0.1-0.1-0.1-0.2-0.1-0.3c-0.7-1.4-2.1-2.3-3.7-2.2c-2.8-0.1-5.4,1.5-6.7,4
		C290.3,116.5,290.1,116.6,289.8,116.6z"></path><path class="st2" d="M232.9,157.4c-1.9-2.2-2.9-5-2.8-7.9c0.4-8.4-1.9-18.9-0.2-23.4c2-5.4,9.5-6.1,10.7,6.5
		c2.9-4.4,6.6-8.2,10.9-11.3c6.8-4.6,19.4-6.5,21.4-3.2s-6.1,4.3-10.2,5.1s-9.6,9.7-9.6,9.7s7.6-3,11.1-2.5c3.5,0.5,3.2,4.4,3.2,4.4
		s7.1,0.6,5.1,7.5c0,0,6.8,3.7,4.6,7.9s-6.4,1.2-7.3-1.2l-2.4,2.2c-1.5,3.3-3.3,6.4-5.3,9.4c-2,2.7-5.1,4.3-8.4,4.3h-5.5
		c-5.7,0-11.2-2.5-14.9-6.8L232.9,157.4z"></path><path class="st0" d="M253.7,165.2h-5.5c-5.9,0-11.4-2.5-15.3-6.9l-0.5-0.5c-2-2.3-3.1-5.3-2.9-8.3c0.1-3.7-0.1-7.3-0.4-11
		c-0.4-5.3-0.8-9.9,0.3-12.7s3.3-4.3,5.6-4c3,0.4,5.2,3.8,6,9.2c2.8-3.9,6.3-7.4,10.2-10.2c5.6-3.9,14.9-5.7,19.3-4.7
		c1.1,0.1,2.1,0.7,2.8,1.7c0.4,0.6,0.5,1.4,0.2,2.1c-0.9,2.1-5.6,2.9-9.4,3.6l-1.5,0.3c-2.9,0.6-6.6,5.5-8.3,8
		c2.5-0.9,7.1-2.3,9.8-1.9c2.2,0.3,3.8,2.2,3.7,4.5c1.8,0.3,3.4,1.2,4.6,2.7c0.9,1.5,1.2,3.3,0.7,5c1.5,0.9,6.6,4.4,4.5,8.4
		c-1.1,2.1-2.6,2.4-3.7,2.3c-1.8-0.3-3.4-1.3-4.3-2.9l-1.8,1.7c-1.5,3.3-3.3,6.4-5.3,9.4C260.6,163.6,257.2,165.2,253.7,165.2z
		 M234.4,122.9c-1.6,0-3.2,1.3-4,3.3c-1,2.6-0.6,7.2-0.2,12.2c0.4,3.7,0.5,7.4,0.4,11.1c-0.1,2.8,0.8,5.5,2.6,7.6l0,0l0.4,0.5
		c3.7,4.2,9,6.6,14.5,6.6h5.5c3.2,0,6.1-1.5,8-4c2-2.9,3.8-6,5.3-9.3c0-0.1,0.1-0.1,0.1-0.2l2.4-2.2c0.2-0.2,0.6-0.2,0.8,0
		c0,0.1,0.1,0.1,0.1,0.2c0.6,1.5,2,2.6,3.7,2.9c1.2,0,2.2-0.7,2.6-1.8c1.9-3.6-4.3-7.1-4.4-7.1c-0.2-0.1-0.3-0.4-0.3-0.6
		c0.6-1.5,0.4-3.1-0.4-4.5c-1.4-2-4.2-2.2-4.3-2.2c-0.3,0-0.5-0.3-0.5-0.6c0,0,0,0,0,0c0-0.1,0.2-3.4-2.8-3.8
		c-3.4-0.5-10.8,2.4-10.8,2.4c-0.3,0.1-0.6,0-0.7-0.3c-0.1-0.2,0-0.4,0-0.5c0.2-0.4,5.6-9.1,10-9.9l1.5-0.3c3.1-0.6,7.8-1.4,8.5-3
		c0.1-0.3,0.1-0.7-0.1-1c-0.5-0.6-1.3-1.1-2.1-1.1c-4.1-0.9-13.1,0.9-18.4,4.6c-4.2,3-7.9,6.8-10.8,11.1c-0.1,0.2-0.4,0.3-0.6,0.2
		c-0.2-0.1-0.4-0.3-0.4-0.5c-0.5-5.7-2.5-9.3-5.2-9.7C234.7,123,234.6,122.9,234.4,122.9z"></path><path class="st0" d="M236.5,142.8L236.5,142.8c-0.4,0-0.6-0.3-0.6-0.6c0,0,0,0,0,0c0.5-4.1,4.1-9.7,4.2-10c0.2-0.3,0.5-0.3,0.8-0.2
		c0.3,0.2,0.3,0.5,0.2,0.8c0,0,0,0,0,0c0,0.1-3.6,5.7-4,9.5C237.1,142.6,236.8,142.9,236.5,142.8
		C236.5,142.8,236.5,142.8,236.5,142.8z"></path><path class="st0" d="M247,139.7c-0.1,0-0.1,0-0.2,0c-0.3-0.1-0.4-0.4-0.3-0.7c1.1-3,3.5-5.4,6.4-6.6c0.3,0,0.6,0.2,0.6,0.5
		c0,0.2-0.1,0.4-0.2,0.5c-2.7,1.1-4.7,3.3-5.7,6C247.4,139.5,247.2,139.7,247,139.7z"></path><path class="st0" d="M256.4,140c-0.3,0-0.6-0.2-0.6-0.6c0-0.2,0.1-0.3,0.2-0.4c2.9-2.9,11-4.8,11.3-4.9c0.3-0.1,0.6,0.1,0.7,0.4
		c0,0,0,0,0,0c0.1,0.3-0.1,0.6-0.4,0.7c-0.1,0-8.1,1.9-10.8,4.6C256.7,139.9,256.6,140,256.4,140z"></path><path class="st0" d="M261,145.5c-0.2,0-0.4-0.1-0.5-0.2c-0.2-0.3-0.1-0.6,0.2-0.8c3.9-2.6,11.6-2.8,11.9-2.8c0.3,0,0.6,0.2,0.6,0.5
		c0,0.3-0.2,0.6-0.5,0.6c-0.1,0-7.6,0.3-11.3,2.6C261.2,145.5,261.1,145.5,261,145.5z"></path><path class="st2" d="M253.5,237c0,0,6.2-3.9,7.8-3.9c2.5,0,33.9,51.1,33.9,51.1h-11l-26.8-40.3l-6.7,3.1L253.5,237z"></path><path class="st0" d="M295.1,284.7h-11c-0.2,0-0.4-0.1-0.5-0.2l-26.5-39.9l-6.3,2.9c-0.2,0.1-0.4,0.1-0.6-0.1
		c-0.2-0.1-0.2-0.4-0.2-0.6l2.8-10c0-0.1,0.1-0.2,0.2-0.3c1.1-0.7,6.4-4,8.1-4c2.5,0,24.9,35.9,34.3,51.4c0.1,0.2,0.1,0.4,0,0.6
		C295.5,284.6,295.3,284.7,295.1,284.7z M284.5,283.6h9.7c-12.2-19.9-30.7-49-33-50c-0.9,0-4.9,2.2-7.2,3.7l-2.4,8.6l5.6-2.6
		c0.2-0.1,0.5,0,0.7,0.2L284.5,283.6z"></path><path class="st2" d="M180.1,283l76.2-42.2c1.5-0.9,3.4-0.6,4.6,0.8l0.1,0.1c1.2,1.6,0.9,4-0.7,5.2c-0.2,0.1-0.3,0.2-0.5,0.3
		l-76.9,42.8L180.1,283z"></path><path class="st0" d="M182.9,290.5h-0.2c-0.2,0-0.3-0.2-0.3-0.3l-2.8-7c-0.1-0.3,0-0.6,0.2-0.7l76.2-42.2c1.8-1,4-0.6,5.3,0.9
		c0.8,1,1.1,2.2,0.9,3.4c-0.2,1.3-1,2.4-2.2,3l-76.9,42.8C183,290.5,182.9,290.5,182.9,290.5z M180.8,283.2l2.4,5.9l76.4-42.5
		c0.8-0.5,1.4-1.3,1.6-2.2c0.2-0.9,0-1.8-0.6-2.4c-1-1.2-2.6-1.5-4-0.7L180.8,283.2z"></path><path class="st2" d="M217.7,352l-33.1-69.9c-1.5-3.2-5.3-4.5-8.5-3c-0.4,0.2-0.9,0.5-1.2,0.8l-54.6,43.8c-2.4,1.9-2.8,5.4-0.9,7.7
		c0.5,0.6,1.1,1.1,1.9,1.5l0,0c1.9,0.9,4.1,0.7,5.7-0.5l50.4-38.1l29.6,62.8c1,2.1,3.1,3.4,5.4,3.4l0,0c3.3,0,5.9-2.6,6-5.9
		C218.3,353.7,218.1,352.8,217.7,352z"></path><path class="st0" d="M212.4,361c-2.5,0-4.8-1.4-5.9-3.7l-29.3-62.2l-49.9,37.7c-2.7,2-6.5,1.4-8.5-1.3c-1.9-2.6-1.5-6.2,1-8.3
		l54.6-43.8c3-2.4,7.3-1.9,9.7,1.1c0.3,0.4,0.6,0.9,0.9,1.4l33.1,69.9c1.5,3.2,0.2,7.1-3.1,8.6C214.3,360.7,213.4,361,212.4,361z
		 M177.4,293.7h0.1c0.2,0,0.3,0.2,0.4,0.3l29.6,62.8c0.9,1.9,2.8,3.1,4.8,3.1c3,0,5.3-2.4,5.3-5.4c0-0.8-0.2-1.6-0.5-2.3l0,0
		l-33.1-69.8c-1.4-2.9-4.9-4.1-7.7-2.7c-0.4,0.2-0.8,0.4-1.1,0.7l-54.6,43.7c-2.1,1.8-2.3,4.9-0.6,7c1.7,2,4.6,2.3,6.7,0.8
		l50.4-38.1C177.2,293.7,177.3,293.7,177.4,293.7L177.4,293.7z"></path><path class="st2" d="M293.2,253.7c-18.5,4.4-23.9,6.3-32.1,5.6c-8.2-0.7-11.2-0.5-11.4,3.3s14.1,4.8,14.1,4.8
		c-4.6,5.2-8,11.3-10,17.9c-2.8,10.2-6,25.6-4.2,26.4c3.4,1.6,4.7-1.3,8.3-10.9c3.6-9.6,5.8-15,5.8-15s-0.6,9.6-0.2,16.8
		s2.1,11.6,4.7,12.2s2.5-4.9,2.6-13.5c0-5.2,0.7-10.3,2.2-15.2c0.8-2.7,2.1-5.2,3.8-7.5c0,0-1.5,11.5,0.6,18.3s5.9,12,8.2,8.7
		s-0.3-10.7-0.2-13.9s2.2-8.6,2.2-8.6s2.9,9.1,5.7,11.7s7.9,4.2,5.6-2.9l-2.2-7c0,0,13.4-4.2,15.8-13.4
		C312.3,271.4,312.5,254.7,293.2,253.7z"></path><path class="st0" d="M268.5,315.3c-0.2,0-0.3,0-0.5-0.1c-2.9-0.7-4.7-5.2-5.1-12.7c-0.3-4.5-0.1-10,0-13.5c-1,2.6-2.6,6.6-4.5,11.9
		c-2.8,7.5-4.1,10.6-6.1,11.4c-1,0.4-2,0.3-2.9-0.2c-0.5-0.2-1.6-0.7,0-10.3c0.9-4.9,2.3-11.2,3.8-16.8c1.9-6.3,5.1-12.2,9.4-17.3
		c-3.9-0.4-13.7-1.6-13.5-5.3c0-1.1,0.4-2.2,1.2-3c1.6-1.4,4.8-1.4,10.8-0.9c6.7,0.6,11.5-0.6,23.2-3.4c2.6-0.6,5.5-1.3,8.8-2.1
		c0.1,0,0.1,0,0.2,0c19.6,1,19.6,18.1,19.6,18.3c0,0,0,0.1,0,0.1c-2.1,8.5-13,12.7-15.6,13.6l2.1,6.5c0.9,2.9,0.8,4.7-0.5,5.5
		c-1.5,1-4.3-0.3-6.1-2.1c-2.2-2.1-4.4-7.7-5.4-10.5c-0.8,2.2-1.4,4.5-1.6,6.9c0.1,1.3,0.2,2.6,0.5,3.8c0.6,3.5,1.4,7.9-0.4,10.4
		c-0.5,0.9-1.5,1.4-2.5,1.2c-2.6-0.4-5.3-5.4-6.7-10.1c-1.5-5.1-1.2-12.5-0.8-16.3c-1.1,1.7-1.9,3.5-2.4,5.4
		c-0.1,0.6-0.3,1.2-0.4,1.8c-1.1,4.4-1.7,8.8-1.7,13.4v1.8c-0.1,6.7-0.2,10.7-1.7,11.9C269.3,315.1,268.9,315.2,268.5,315.3z
		 M263.7,285.2h0.1c0.3,0.1,0.4,0.3,0.4,0.6c0,0.1-0.6,9.7-0.2,16.7c0.4,6.8,2,11.2,4.3,11.7c0.2,0.1,0.5,0,0.6-0.1
		c1.1-0.9,1.2-5.4,1.3-11.1v-1.8c0-4.6,0.5-9.2,1.7-13.6c0.1-0.6,0.3-1.2,0.4-1.8c0.8-2.8,2.1-5.4,3.9-7.7c0.2-0.2,0.4-0.3,0.7-0.2
		c0.2,0.1,0.4,0.3,0.4,0.6c0,0.1-1.5,11.4,0.6,18c1.5,5.1,4,9,5.8,9.3c0.2,0,0.8,0.1,1.4-0.8c1.5-2.1,0.8-6.2,0.2-9.5
		c-0.3-1.3-0.5-2.7-0.5-4c0-3.2,2.1-8.5,2.2-8.8c0.1-0.2,0.3-0.4,0.5-0.4c0.2,0,0.4,0.2,0.5,0.4c0,0.1,2.9,9,5.6,11.5
		c1.7,1.6,3.8,2.5,4.7,1.9c0.7-0.4,0.7-2,0-4.2l-2.3-7c-0.1-0.1-0.1-0.3,0-0.4c0.1-0.1,0.2-0.2,0.3-0.3c0.1,0,13.1-4.2,15.4-13
		c0-1.3-0.5-16.1-18.5-17.1c-3.3,0.8-6.1,1.5-8.7,2.1c-11.8,2.9-16.7,4.1-23.6,3.5c-5.6-0.5-8.6-0.5-10,0.6
		c-0.6,0.6-0.9,1.4-0.9,2.2c-0.1,2.2,7.9,3.8,13.6,4.2c0.2,0,0.4,0.2,0.5,0.4c0.1,0.2,0,0.4-0.1,0.6c-0.1,0.1-7.1,7.7-9.9,17.7
		c-3.4,12.4-5.5,24.6-4.5,25.8c0.6,0.3,1.3,0.4,2,0.2c1.7-0.7,3.2-4.6,5.5-10.8c3.5-9.5,5.8-15,5.8-15.1
		C263.1,285.3,263.4,285.1,263.7,285.2z"></path><path class="st0" d="M263.7,286.3h-0.1c-0.3-0.1-0.5-0.4-0.4-0.7c0,0,0,0,0,0c0.1-0.3,2.1-8.2,6-12.6c0.2-0.2,0.6-0.2,0.8,0
		c0.2,0.2,0.2,0.6,0,0.8c-3.7,4.1-5.8,12-5.8,12.1C264.1,286.1,263.9,286.3,263.7,286.3z"></path><path class="st0" d="M276.7,279c-0.1,0-0.2,0-0.2,0c-0.3-0.1-0.4-0.4-0.3-0.7l1.5-3.6c0.2-0.2,0.5-0.3,0.8-0.1
		c0.2,0.1,0.3,0.3,0.2,0.6l-1.5,3.6C277.1,278.9,276.9,279,276.7,279z"></path><path class="st0" d="M287.4,283.5c-0.1,0-0.1,0-0.2,0c-0.3-0.1-0.4-0.4-0.3-0.7c1.1-3.2,2.6-6.2,4.5-8.9c0.2-0.3,0.5-0.3,0.8-0.1
		c0.3,0.2,0.3,0.5,0.1,0.8c0,0,0,0,0,0c-1.8,2.7-3.3,5.6-4.3,8.6C287.9,283.4,287.7,283.5,287.4,283.5z"></path><path class="st0" d="M296.5,285.4c-0.3,0-0.5-0.2-0.6-0.5c-0.2-3.3-0.3-6.9-0.3-7c0-0.3,0.2-0.6,0.5-0.6c0,0,0,0,0,0
		c0.3,0,0.6,0.2,0.6,0.5c0,0,0.1,3.6,0.3,7C297.1,285.1,296.9,285.3,296.5,285.4C296.6,285.4,296.6,285.4,296.5,285.4L296.5,285.4z"></path><path class="st0" d="M263.8,267.9c-0.2,0-0.3-0.1-0.4-0.2c-0.2-0.2-0.2-0.6,0-0.8c0,0,0,0,0,0c3-2.8,6.2-5.3,9.6-7.6
		c0.2-0.2,0.6-0.1,0.8,0.1s0.1,0.6-0.1,0.8c0,0,0,0-0.1,0c-3.3,2.2-6.5,4.7-9.5,7.5C264,267.8,263.9,267.9,263.8,267.9z"></path></g></svg>